<?xml version="1.0" standalone="no"?>
<!DOCTYPE svg PUBLIC "-//W3C//DTD SVG 20010904//EN"
 "http://www.w3.org/TR/2001/REC-SVG-20010904/DTD/svg10.dtd">
<svg version="1.0" xmlns="http://www.w3.org/2000/svg"
 width="2042.000000pt" height="2042.000000pt" viewBox="0 0 2042.000000 2042.000000"
 preserveAspectRatio="xMidYMid meet">

<g transform="translate(0.000000,2042.000000) scale(0.100000,-0.100000)"
fill="#000000" stroke="none">
<path d="M10150 19270 l0 -200 1600 0 1600 0 -2 198 -3 197 -1597 3 -1598 2 0
-200z"/>
<path d="M7081 18570 c75 -93 1215 -1356 1222 -1353 6 4 1166 1296 1225 1366
14 16 -45 17 -1228 17 l-1243 0 24 -30z"/>
<path d="M10871 18562 c1009 -1129 1213 -1352 1224 -1340 7 7 52 58 102 113
49 55 324 362 611 683 l522 582 -1246 0 -1246 0 33 -38z"/>
<path d="M5902 17538 l-622 -693 1237 -3 c680 -1 1238 0 1241 2 3 3 -1093
1235 -1218 1369 -16 18 -44 -11 -638 -675z"/>
<path d="M9573 17538 l-621 -693 618 -3 c340 -1 899 -1 1243 0 l624 3 -611
683 c-337 375 -617 687 -622 692 -7 7 -213 -216 -631 -682z"/>
<path d="M13372 17539 l-621 -694 625 -3 c344 -1 903 -1 1243 0 l617 3 -579
645 c-318 355 -598 667 -621 694 l-42 48 -622 -693z"/>
<path d="M5282 16412 c6 -15 4253 -5351 4256 -5348 2 3 -1373 5269 -1394 5339
-5 16 -82 17 -1436 17 -786 0 -1428 -4 -1426 -8z"/>
<path d="M8690 16413 c0 -5 338 -1213 752 -2686 540 -1922 755 -2672 760
-2655 11 37 1486 5290 1493 5321 l7 27 -1506 0 c-828 0 -1506 -3 -1506 -7z"/>
<path d="M12374 16405 c-8 -21 -1403 -5350 -1401 -5351 2 -1 4068 5110 4210
5292 l58 74 -1431 0 c-1253 0 -1431 -2 -1436 -15z"/>
<path d="M3170 5641 l0 -4681 7035 0 7035 0 0 4680 0 4680 -23 -14 c-12 -8
-996 -557 -2187 -1222 l-2164 -1207 -41 15 c-22 8 -620 282 -1330 608 -709
326 -1297 593 -1305 592 -8 -1 -592 -275 -1296 -610 l-1281 -608 -2139 1178
c-1177 649 -2176 1199 -2221 1224 l-83 45 0 -4680z m2834 1964 c1082 -573
1606 -845 1620 -842 12 2 606 264 1320 580 l1299 576 1346 -544 1345 -544
1286 648 c707 357 1430 725 1607 819 177 94 330 170 340 170 10 0 26 3 36 7
16 7 17 -5 17 -164 l0 -171 -25 -12 -25 -11 0 -3124 0 -3123 -5960 0 -5960 0
0 3315 c0 3275 0 3316 19 3305 26 -13 31 -13 31 5 0 12 12 9 53 -14 28 -16
772 -410 1651 -876z"/>
<path d="M14292 6358 l-1252 -607 -1392 596 -1392 595 -46 -20 c-25 -10 -632
-295 -1350 -632 -718 -337 -1312 -614 -1320 -617 -8 -2 -589 282 -1291 631
-701 350 -1279 636 -1282 636 -4 0 -7 -961 -7 -2136 l0 -2136 798 6 c438 4
2820 16 5292 27 2472 12 4496 22 4498 23 1 2 1 956 0 2122 l-3 2119 -1253
-607z m-5098 -1158 c131 -13 244 -48 330 -103 223 -143 328 -324 366 -632 17
-132 7 -400 -19 -520 -82 -378 -290 -617 -616 -706 -67 -19 -106 -22 -245 -22
-145 0 -177 3 -261 26 -53 14 -128 38 -165 54 -87 37 -237 132 -231 147 5 13
224 336 237 350 5 4 23 -3 42 -17 102 -77 236 -121 368 -121 81 0 103 3 151
26 112 52 183 159 208 316 l8 50 -51 -38 c-131 -97 -274 -132 -451 -110 -118
15 -214 49 -297 106 -85 58 -135 114 -182 204 -46 87 -66 177 -66 301 0 371
256 643 649 689 97 11 106 11 225 0z m1926 -17 c217 -44 416 -206 508 -416 64
-146 86 -300 79 -555 -6 -215 -20 -298 -76 -451 -97 -265 -297 -450 -566 -522
-109 -30 -341 -32 -465 -6 -138 30 -312 108 -419 188 l-22 17 121 178 c67 99
123 180 125 182 1 2 30 -15 64 -36 204 -132 445 -146 573 -32 55 48 93 117
118 216 28 108 27 111 -22 71 -103 -84 -219 -121 -373 -120 -397 1 -657 269
-632 653 8 115 25 182 71 275 147 297 512 440 916 358z m-3110 -968 l0 -965
-260 0 -260 0 0 715 c0 581 -2 715 -13 715 -7 0 -79 -15 -160 -34 -81 -18
-149 -31 -151 -27 -8 15 -100 401 -96 404 3 2 124 38 270 79 l265 76 203 1
202 1 0 -965z m5360 735 l0 -220 -434 0 -434 0 -7 -141 c-4 -77 -5 -142 -2
-145 3 -3 30 3 59 14 124 46 307 53 449 17 167 -43 322 -161 386 -295 60 -123
77 -284 48 -435 -70 -370 -452 -584 -935 -525 -214 26 -410 115 -584 263 l-38
33 151 177 152 176 61 -45 c151 -111 269 -157 403 -157 141 0 220 38 261 127
40 85 28 175 -31 238 -96 102 -295 109 -477 17 l-57 -29 -156 86 -155 86 0 37
c0 20 11 234 25 476 14 242 25 446 25 453 0 9 136 12 645 12 l645 0 0 -220z"/>
<path d="M8996 4775 c-88 -31 -141 -98 -158 -196 -20 -115 29 -220 126 -272
34 -18 57 -22 141 -22 84 0 107 4 141 22 83 44 126 121 127 223 1 110 -49 189
-148 236 -59 28 -165 32 -229 9z"/>
<path d="M10808 4775 c-102 -37 -158 -123 -158 -240 0 -162 100 -255 274 -255
148 1 249 87 263 225 12 118 -57 233 -162 268 -58 20 -165 21 -217 2z"/>
</g>
</svg>
